<svg width="1040" height="771" viewBox="0 0 1040 771" fill="none" xmlns="http://www.w3.org/2000/svg">
<g clip-path="url(#clip0_4:62)">
<path d="M24.9397 388.256C29.1168 387.352 33.482 388.144 37.0751 390.458C40.6682 392.773 43.1948 396.419 44.0991 400.596C45.0034 404.773 44.2114 409.139 41.8972 412.732C39.583 416.325 35.9363 418.851 31.7592 419.756C23.0609 421.639 0 410.144 0 410.144C0 410.144 16.2414 390.14 24.9397 388.256Z" fill="#4290FA"/>
<path d="M28.79 719.105C31.5247 715.821 35.452 713.757 39.7082 713.369C43.9643 712.98 48.2005 714.298 51.485 717.032C54.7694 719.767 56.833 723.695 57.2217 727.951C57.6105 732.207 56.2926 736.443 53.5579 739.727C47.8633 746.567 22.6142 751.708 22.6142 751.708C22.6142 751.708 23.0954 725.945 28.79 719.105Z" fill="#4290FA"/>
<path d="M727.665 194.444C701.705 150.58 650.346 148.535 650.346 148.535C650.346 148.535 600.299 142.136 568.195 208.941C538.27 271.209 496.971 331.33 561.546 345.907L573.21 309.603L580.433 348.61C589.627 349.271 598.851 349.428 608.062 349.082C677.216 346.849 743.075 349.735 740.954 324.92C738.135 291.931 752.644 236.65 727.665 194.444Z" fill="#2F2E41"/>
<path d="M621.112 286.247C630.057 306.034 635.697 329.62 639.065 355.819L710.881 351.33C694.37 327.934 688.888 301.08 695.171 270.538L621.112 286.247Z" fill="#FFB8B8"/>
<path opacity="0.2" d="M621.112 286.247C630.057 306.034 635.697 329.62 639.065 355.819L710.881 351.33C694.37 327.934 688.888 301.08 695.171 270.538L621.112 286.247Z" fill="black"/>
<path d="M287.908 662.983C287.908 662.983 250.739 682.893 269.6 699.891C288.462 716.889 313.376 677.391 313.376 677.391L287.908 662.983Z" fill="#FFB8B8"/>
<path d="M742.3 604.93L741.72 632.13L740.48 690.9L739.44 740.76L664.18 770.47L501.39 713.72L512.1 654.25L520.75 606.23L524.61 584.73L719.86 557.8L742.3 604.93Z" fill="#2F2E41"/>
<path d="M742.3 604.929L741.717 632.129C672.639 630.356 565.567 613.682 520.749 606.231L524.609 584.731L719.858 557.8L742.3 604.929Z" fill="#3F3D56"/>
<path d="M655.897 305.323C686.884 305.323 712.003 280.204 712.003 249.218C712.003 218.231 686.884 193.112 655.897 193.112C624.911 193.112 599.791 218.231 599.791 249.218C599.791 280.204 624.911 305.323 655.897 305.323Z" fill="#FFB8B8"/>
<path d="M763.621 635.226C763.621 635.226 770.353 695.821 729.957 691.332L723.224 630.738L687.317 594.83L586.326 592.586L512.266 662.157C512.266 662.157 510.022 590.342 518.999 583.609C527.976 576.876 548.174 561.167 548.174 561.167V549.945L487.579 426.512C487.579 426.512 523.487 352.452 552.662 350.208L590.814 347.964C590.814 347.964 604.28 341.231 604.28 338.987C604.28 336.743 602.036 318.789 613.257 323.277C613.257 323.277 614.267 300.251 626.094 307.276C626.094 307.276 663.326 336.451 701.119 308.555C701.119 308.555 718.736 305.323 716.492 314.3C714.248 323.277 716.492 330.01 720.98 330.01C725.469 330.01 745.667 336.743 745.667 341.231C745.667 342.196 747.126 351.487 749.414 365.469V365.491C757.741 416.458 777.086 529.747 777.086 529.747C777.086 529.747 797.284 558.922 763.621 635.226Z" fill="#4290FA"/>
<path d="M503.289 415.291L487.579 426.512L343.948 610.54L267.644 671.134C267.644 671.134 310.285 664.402 301.308 700.309L563.884 549.945L503.289 415.291Z" fill="#4290FA"/>
<path d="M749.415 365.469V365.491C746.43 383.041 649.165 379.383 635.699 379.383C622.234 379.383 611.013 377.139 597.547 368.162C584.082 359.185 590.814 347.964 590.814 347.964C590.814 347.964 602.28 339.231 602.28 336.987C602.28 334.743 600.036 316.789 611.257 321.277C611.257 321.277 612.267 298.251 624.094 305.276C624.094 305.276 663.326 336.451 701.119 308.555C701.119 308.555 718.736 305.323 716.492 314.3C714.248 323.277 716.492 330.01 720.98 330.01C725.469 330.01 745.667 336.743 745.667 341.231C745.667 342.196 747.126 351.487 749.415 365.469Z" fill="#3F3D56"/>
<path d="M737.812 281.759C737.812 281.759 719.858 243.607 701.904 261.561C683.95 279.515 722.102 306.446 722.102 306.446L737.812 281.759Z" fill="#FFB8B8"/>
<path d="M737.812 272.782C737.812 272.782 710.088 307.818 701.508 310.498C701.508 310.498 726.591 409.68 758.01 436.611L775.964 528.625C775.964 528.625 852.268 497.206 834.314 445.588C834.135 445.072 833.956 444.559 833.778 444.049C818.787 401.063 798.098 360.281 772.265 322.795L737.812 272.782Z" fill="#4290FA"/>
<path opacity="0.2" d="M722.997 376.697L778.208 528.625L758.01 436.611L722.997 376.697Z" fill="black"/>
<path d="M716.188 190.215L665.447 163.637L595.377 174.51L580.88 238.54L616.968 237.152L627.05 213.628V236.764L643.701 236.123L653.366 198.672L659.407 238.54L718.604 237.332L716.188 190.215Z" fill="#2F2E41"/>
<path d="M280.895 690.456C246.015 671.012 224.302 644.465 216.356 611.554C210.457 587.118 212.152 559.621 221.394 529.826C228.246 507.859 238.518 487.109 251.833 468.342C322.471 368.355 328.847 303.204 321.757 266.155C313.983 225.532 288.725 208.661 288.471 208.496L289.561 206.819C289.822 206.988 315.745 224.251 323.706 265.699C328.295 289.593 326.136 316.839 317.288 346.68C306.277 383.817 284.804 425.139 253.467 469.496C240.273 488.092 230.094 508.652 223.304 530.418C208.146 579.285 206.002 646.415 281.869 688.71L280.895 690.456Z" fill="#2F2E41"/>
<path d="M217.191 505.314C189.693 489.986 190.459 465.693 195.943 448.014C198.375 440.216 202.021 432.85 206.747 426.188C231.494 391.16 233.73 368.405 231.249 355.484C228.553 341.453 219.907 335.693 219.821 335.637L220.91 333.96C221.295 334.209 230.359 340.248 233.213 355.107C236.929 374.455 228.574 398.759 208.381 427.343C203.776 433.833 200.223 441.008 197.853 448.605C192.588 465.579 191.838 488.892 218.165 503.568L217.191 505.314Z" fill="#2F2E41"/>
<path d="M340.908 283.315L339.934 281.568C366.261 266.892 365.511 243.578 360.246 226.606C357.876 219.009 354.323 211.833 349.718 205.343C329.525 176.759 321.17 152.455 324.886 133.107C327.74 118.248 336.804 112.209 337.189 111.96L338.28 113.636C338.193 113.693 329.503 119.529 326.835 133.563C324.381 146.477 326.642 169.212 351.352 204.188C356.078 210.85 359.724 218.215 362.156 226.013C367.64 243.693 368.406 267.986 340.908 283.315Z" fill="#2F2E41"/>
<path d="M399.618 183.812C397.466 187.113 394.685 189.958 391.434 192.184C388.182 194.41 384.524 195.974 380.668 196.786C376.812 197.598 372.833 197.642 368.96 196.916C365.087 196.19 361.395 194.708 358.094 192.555C354.794 190.402 351.95 187.62 349.725 184.367C347.501 181.115 345.938 177.456 345.128 173.6C344.318 169.743 344.275 165.765 345.002 161.892C345.729 158.019 347.213 154.328 349.367 151.028C358.42 137.152 403.999 122.194 403.999 122.194C403.999 122.194 408.671 169.936 399.618 183.812Z" fill="#4290FA"/>
<path d="M388.618 90.8124C386.466 94.1135 383.685 96.9583 380.434 99.1844C377.182 101.41 373.524 102.974 369.668 103.786C365.812 104.598 361.833 104.642 357.96 103.916C354.087 103.19 350.395 101.708 347.094 99.5552C343.794 97.4021 340.95 94.6198 338.725 91.3673C336.501 88.1149 334.938 84.456 334.128 80.5996C333.318 76.7433 333.275 72.765 334.002 68.8922C334.729 65.0193 336.213 61.3276 338.367 58.0281C347.42 44.1516 392.999 29.1941 392.999 29.1941C392.999 29.1941 397.671 76.9358 388.618 90.8124Z" fill="#4290FA"/>
<path d="M340.265 431.529C333.227 431.54 326.394 429.156 320.891 424.769C315.387 420.381 311.541 414.252 309.984 407.388C308.427 400.524 309.252 393.335 312.323 387.002C315.395 380.669 320.53 375.571 326.884 372.544C341.984 365.349 387.275 375.882 389.196 376.333L390.41 376.619L389.867 377.742C389.008 379.518 368.65 421.323 353.548 428.517C349.4 430.5 344.862 431.529 340.265 431.529V431.529ZM342.787 372.038C336.645 372.038 331.262 372.674 327.744 374.349C320.801 377.657 315.455 383.588 312.884 390.837C310.313 398.086 310.727 406.059 314.034 413.003C317.342 419.947 323.273 425.292 330.522 427.863C337.771 430.434 345.744 430.02 352.688 426.713C365.825 420.454 384.096 384.835 387.508 378.002C382.049 376.789 359.584 372.038 342.787 372.038V372.038Z" fill="#2F2E41"/>
<path d="M279.13 156.287C282.041 158.942 284.401 162.143 286.075 165.71C287.749 169.276 288.703 173.138 288.885 177.073C289.066 181.008 288.471 184.941 287.133 188.647C285.794 192.352 283.739 195.757 281.085 198.669C278.43 201.58 275.229 203.94 271.662 205.613C268.096 207.287 264.235 208.242 260.299 208.423C256.364 208.605 252.431 208.01 248.726 206.671C245.02 205.333 241.615 203.278 238.704 200.623C226.46 189.46 219.014 142.071 219.014 142.071C219.014 142.071 266.887 145.124 279.13 156.287Z" fill="#4290FA"/>
<path d="M209.13 282.287C215.009 287.648 218.518 295.125 218.885 303.073C219.252 311.021 216.446 318.789 211.085 324.669C205.724 330.548 198.247 334.057 190.299 334.423C182.351 334.79 174.583 331.984 168.704 326.623C156.46 315.46 149.014 268.071 149.014 268.071C149.014 268.071 196.887 271.124 209.13 282.287Z" fill="#4290FA"/>
<path d="M287.593 299.958C277.579 299.958 258.432 290.476 257.554 290.038L256.437 289.482L257.224 288.513C257.896 287.685 273.789 268.214 282.728 266.279C287.165 265.318 291.801 266.16 295.617 268.618C299.433 271.075 302.116 274.949 303.077 279.385C304.037 283.821 303.196 288.457 300.738 292.273C298.28 296.09 294.407 298.773 289.97 299.733C289.188 299.892 288.391 299.967 287.593 299.958V299.958ZM259.586 288.8C264.302 291.051 282.363 299.335 289.548 297.778C293.463 296.928 296.881 294.557 299.049 291.188C301.218 287.819 301.96 283.726 301.112 279.81C300.264 275.894 297.896 272.474 294.528 270.304C291.16 268.133 287.068 267.388 283.151 268.234C275.964 269.79 262.948 284.801 259.586 288.8Z" fill="#2F2E41"/>
<path d="M180.199 706.824C182.306 703.108 185.802 700.38 189.919 699.24C194.036 698.101 198.437 698.642 202.154 700.746C205.872 702.85 208.603 706.344 209.745 710.46C210.888 714.576 210.35 718.977 208.249 722.697C203.866 730.442 179.939 740.005 179.939 740.005C179.939 740.005 175.816 714.569 180.199 706.824Z" fill="#4290FA"/>
<path d="M127.858 535.237C120.956 535.126 114.07 534.533 107.251 533.461L106.019 533.261L106.483 532.102C106.879 531.112 116.276 507.801 124.238 503.3C126.194 502.194 128.349 501.484 130.58 501.21C132.811 500.937 135.073 501.106 137.239 501.707C139.405 502.308 141.431 503.33 143.201 504.714C144.972 506.099 146.452 507.818 147.559 509.775C148.665 511.731 149.375 513.886 149.648 516.117C149.921 518.348 149.752 520.611 149.151 522.776C148.55 524.942 147.528 526.968 146.144 528.738C144.76 530.509 143.04 531.989 141.084 533.096C138.223 534.713 133.186 535.237 127.858 535.237ZM108.823 531.675C113.994 532.424 133.698 534.973 140.099 531.355C143.589 529.382 146.152 526.104 147.225 522.242C148.297 518.379 147.791 514.249 145.818 510.759C143.845 507.269 140.567 504.706 136.705 503.634C132.842 502.561 128.712 503.067 125.222 505.04V505.04C118.822 508.658 110.847 526.857 108.823 531.675Z" fill="#2F2E41"/>
</g>
<defs>
<clipPath id="clip0_4:62">
<rect width="1083.42" height="818.47" fill="white" transform="translate(0 -48)"/>
</clipPath>
</defs>
</svg>
